<?xml version="1.0" encoding="UTF-8" standalone="no"?>
<svg
   width="32"
   height="32"
   viewBox="0 0 256 256"
   version="1.1"
   id="svg24"
   sodipodi:docname="LogosMicrosoftEdge.svg"
   inkscape:export-filename="letter.png"
   inkscape:export-xdpi="96"
   inkscape:export-ydpi="96"
   xmlns:inkscape="http://www.inkscape.org/namespaces/inkscape"
   xmlns:sodipodi="http://sodipodi.sourceforge.net/DTD/sodipodi-0.dtd"
   xmlns="http://www.w3.org/2000/svg"
   xmlns:svg="http://www.w3.org/2000/svg">
  <sodipodi:namedview
     id="namedview24"
     pagecolor="#ffffff"
     bordercolor="#000000"
     borderopacity="0.25"
     inkscape:showpageshadow="2"
     inkscape:pageopacity="0.0"
     inkscape:pagecheckerboard="0"
     inkscape:deskcolor="#d1d1d1">
    <inkscape:page
       x="0"
       y="0"
       width="256"
       height="256"
       id="page2"
       margin="0"
       bleed="0" />
  </sodipodi:namedview>
  <!-- Icon from SVG Logos by Gil Barbara - https://raw.githubusercontent.com/gilbarbara/logos/master/LICENSE.txt -->
  <defs
     id="defs19">
    <radialGradient
       id="logosMicrosoftEdge0"
       cx="161.83"
       cy="788.401"
       r="95.379997"
       gradientTransform="matrix(0.9999,0,0,0.9498,-4.622,-570.387)"
       gradientUnits="userSpaceOnUse">
      <stop
         offset=".72"
         stop-opacity="0"
         id="stop1" />
      <stop
         offset=".95"
         stop-opacity=".53"
         id="stop2" />
      <stop
         offset="1"
         id="stop3" />
    </radialGradient>
    <radialGradient
       id="logosMicrosoftEdge1"
       cx="-773.63599"
       cy="746.71503"
       r="143.24001"
       gradientTransform="matrix(0.15,-0.9898,0.8,0.12,-410.718,-656.341)"
       gradientUnits="userSpaceOnUse">
      <stop
         offset=".76"
         stop-opacity="0"
         id="stop4" />
      <stop
         offset=".95"
         stop-opacity=".5"
         id="stop5" />
      <stop
         offset="1"
         id="stop6" />
    </radialGradient>
    <radialGradient
       id="logosMicrosoftEdge2"
       cx="230.593"
       cy="-106.038"
       r="202.42999"
       gradientTransform="matrix(-0.04,0.9998,-2.1299,-0.07998,-190.775,-191.635)"
       gradientUnits="userSpaceOnUse">
      <stop
         offset="0"
         stop-color="#35C1F1"
         id="stop7"
         style="stop-color:#35c1f1;stop-opacity:1;" />
      <stop
         offset=".11"
         stop-color="#34C1ED"
         id="stop8" />
      <stop
         offset=".23"
         stop-color="#2FC2DF"
         id="stop9" />
      <stop
         offset=".31"
         stop-color="#2BC3D2"
         id="stop10" />
      <stop
         offset=".67"
         stop-color="#36C752"
         id="stop11" />
    </radialGradient>
    <radialGradient
       id="logosMicrosoftEdge3"
       cx="536.35699"
       cy="-117.703"
       r="97.339996"
       gradientTransform="matrix(0.28,0.9598,-0.78,0.23,-1.928,-410.318)"
       gradientUnits="userSpaceOnUse">
      <stop
         offset="0"
         stop-color="#66EB6E"
         id="stop12" />
      <stop
         offset="1"
         stop-color="#66EB6E"
         stop-opacity="0"
         id="stop13" />
    </radialGradient>
    <linearGradient
       id="logosMicrosoftEdge4"
       x1="63.334"
       x2="241.617"
       y1="757.83002"
       y2="757.83002"
       gradientTransform="translate(-4.63,-580.81)"
       gradientUnits="userSpaceOnUse">
      <stop
         offset="0"
         stop-color="#0C59A4"
         id="stop14" />
      <stop
         offset="1"
         stop-color="#114A8B"
         id="stop15" />
    </linearGradient>
    <linearGradient
       id="logosMicrosoftEdge5"
       x1="157.401"
       x2="46.028"
       y1="680.55603"
       y2="801.86798"
       gradientTransform="translate(-4.63,-580.81)"
       gradientUnits="userSpaceOnUse">
      <stop
         offset="0"
         stop-color="#1B9DE2"
         id="stop16" />
      <stop
         offset=".16"
         stop-color="#1595DF"
         id="stop17" />
      <stop
         offset=".67"
         stop-color="#0680D7"
         id="stop18" />
      <stop
         offset="1"
         stop-color="#0078D4"
         id="stop19" />
    </linearGradient>
  </defs>
  <path
     fill="url(#logosMicrosoftEdge4)"
     d="m 231,190.5 c -3.4,1.8 -6.9,3.4 -10.5,4.7 -11.5,4.3 -23.6,6.5 -35.9,6.5 -47.3,0 -88.5,-32.5 -88.5,-74.3 0.1,-11.4 6.4,-21.9 16.4,-27.3 -42.8,1.8 -53.8,46.4 -53.8,72.5 0,73.9 68.1,81.4 82.8,81.4 7.9,0 19.8,-2.3 27,-4.6 l 1.3,-0.4 c 27.6,-9.5 51,-28.1 66.6,-52.8 1.2,-1.9 0.6,-4.3 -1.2,-5.5 -1.3,-0.8 -2.9,-0.9 -4.2,-0.2 z"
     id="path19"
     style="opacity:0.5;fill:url(#logosMicrosoftEdge4)" />
  <path
     fill="url(#logosMicrosoftEdge0)"
     d="m 231,190.5 c -3.4,1.8 -6.9,3.4 -10.5,4.7 -11.5,4.3 -23.6,6.5 -35.9,6.5 -47.3,0 -88.5,-32.5 -88.5,-74.3 0.1,-11.4 6.4,-21.9 16.4,-27.3 -42.8,1.8 -53.8,46.4 -53.8,72.5 0,73.9 68.1,81.4 82.8,81.4 7.9,0 19.8,-2.3 27,-4.6 l 1.3,-0.4 c 27.6,-9.5 51,-28.1 66.6,-52.8 1.2,-1.9 0.6,-4.3 -1.2,-5.5 -1.3,-0.8 -2.9,-0.9 -4.2,-0.2 z"
     opacity="0.35"
     id="path20"
     style="fill:url(#logosMicrosoftEdge0)" />
  <path
     fill="url(#logosMicrosoftEdge5)"
     d="M 105.7,241.4 C 96.8,235.9 89.1,228.6 83,220.1 c -26.3,-36 -18.4,-86.5 17.6,-112.8 3.8,-2.7 7.7,-5.2 11.9,-7.2 3.1,-1.5 8.4,-4.1 15.5,-4 10.1,0.1 19.6,4.9 25.7,13 4,5.4 6.3,11.9 6.4,18.7 0,-0.2 24.5,-79.6 -80,-79.6 -43.9,0 -80,41.7 -80,78.2 -0.2,19.3 4,38.5 12.1,56 27.6,58.8 94.8,87.6 156.4,67.1 -21.1,6.6 -44.1,3.7 -62.9,-8.1 z"
     id="path21"
     style="opacity:0.5;fill:url(#logosMicrosoftEdge5)" />
  <path
     fill="url(#logosMicrosoftEdge1)"
     d="M 105.7,241.4 C 96.8,235.9 89.1,228.6 83,220.1 c -26.3,-36 -18.4,-86.5 17.6,-112.8 3.8,-2.7 7.7,-5.2 11.9,-7.2 3.1,-1.5 8.4,-4.1 15.5,-4 10.1,0.1 19.6,4.9 25.7,13 4,5.4 6.3,11.9 6.4,18.7 0,-0.2 24.5,-79.6 -80,-79.6 -43.9,0 -80,41.7 -80,78.2 -0.2,19.3 4,38.5 12.1,56 27.6,58.8 94.8,87.6 156.4,67.1 -21.1,6.6 -44.1,3.7 -62.9,-8.1 z"
     opacity="0.41"
     id="path22"
     style="fill:url(#logosMicrosoftEdge1)" />
  <path
     fill="url(#logosMicrosoftEdge2)"
     d="m 152.3,148.9 c -0.8,1 -3.3,2.5 -3.3,5.7 0,2.6 1.7,5.1 4.7,7.2 14.4,10 41.5,8.7 41.6,8.7 10.7,0 21.1,-2.9 30.3,-8.3 18.8,-11 30.4,-31.1 30.4,-52.9 C 256.3,86.9 248,72 244.7,65.4 223.5,23.9 177.7,0 128,0 58,0 1,56.2 0,126.2 c 0.5,-36.5 36.8,-66 80,-66 3.5,0 23.5,0.3 42,10.1 16.3,8.6 24.9,18.9 30.8,29.2 6.2,10.7 7.3,24.1 7.3,29.5 0,5.3 -2.7,13.3 -7.8,19.9 z"
     id="path23"
     style="opacity:0.5;fill:url(#logosMicrosoftEdge2)" />
  <path
     fill="url(#logosMicrosoftEdge3)"
     d="m 152.3,148.9 c -0.8,1 -3.3,2.5 -3.3,5.7 0,2.6 1.7,5.1 4.7,7.2 14.4,10 41.5,8.7 41.6,8.7 10.7,0 21.1,-2.9 30.3,-8.3 18.8,-11 30.4,-31.1 30.4,-52.9 C 256.3,86.9 248,72 244.7,65.4 223.5,23.9 177.7,0 128,0 58,0 1,56.2 0,126.2 c 0.5,-36.5 36.8,-66 80,-66 3.5,0 23.5,0.3 42,10.1 16.3,8.6 24.9,18.9 30.8,29.2 6.2,10.7 7.3,24.1 7.3,29.5 0,5.3 -2.7,13.3 -7.8,19.9 z"
     id="path24"
     style="opacity:0.5;fill:url(#logosMicrosoftEdge3)" />
</svg>
